<svg xmlns="http://www.w3.org/2000/svg" width="600" height="300" viewBox="0 0 600 300">
  <!-- 云朵1 -->
  <path fill="#ffffff" fill-opacity="0.4" d="M50 40C30 40 15 55 15 75s15 35 35 35c10 0 19-4 26-10.5C84 110 94 115 105 115c25 0 45-20 45-45S130 25 105 25c-5 0-10 1-15 2.5C85 18 69 10 50 10c-22 0-40 15-40 35 0 5 1 10 3 15-8 7-13 18-13 30 0 22 17 40 38 40 14 0 27-8 34-20 4 2 9 3 13 3 20 0 35-15 35-35s-15-35-35-35c-3 0-5 0-8 1 0-5-1-9-3-13 4-6 6-12 6-20 0-20-15-35-35-35-11 0-20 5-26 13-9-7-20-12-33-12-28 0-50 23-50 50 0 5 1 9 2 14-10 7-16 19-16 32 0 22 17 40 39 40 11 0 22-5 29-13 7 4 15 6 23 6 27 0 48-22 48-49 0-13-5-24-13-32 7-7 11-16 11-27 0-20-15-35-35-35z"/>
  
  <!-- 云朵2 -->
  <path fill="#ffffff" fill-opacity="0.3" d="M250 100C230 100 215 115 215 135s15 35 35 35c10 0 19-4 26-10.5C284 170 294 175 305 175c25 0 45-20 45-45s-20-45-45-45c-5 0-10 1-15 2.5C285 78 269 70 250 70c-22 0-40 15-40 35 0 5 1 10 3 15-8 7-13 18-13 30 0 22 17 40 38 40 14 0 27-8 34-20 4 2 9 3 13 3 20 0 35-15 35-35s-15-35-35-35c-3 0-5 0-8 1 0-5-1-9-3-13 4-6 6-12 6-20 0-20-15-35-35-35-11 0-20 5-26 13-9-7-20-12-33-12-28 0-50 23-50 50 0 5 1 9 2 14-10 7-16 19-16 32 0 22 17 40 39 40 11 0 22-5 29-13 7 4 15 6 23 6 27 0 48-22 48-49 0-13-5-24-13-32 7-7 11-16 11-27 0-20-15-35-35-35z" transform="translate(50, 30)"/>
  
  <!-- 云朵3 -->
  <path fill="#ffffff" fill-opacity="0.35" d="M400 30C380 30 365 45 365 65s15 35 35 35c10 0 19-4 26-10.5C434 100 444 105 455 105c25 0 45-20 45-45S480 15 455 15c-5 0-10 1-15 2.5C435 8 419 0 400 0c-22 0-40 15-40 35 0 5 1 10 3 15-8 7-13 18-13 30 0 22 17 40 38 40 14 0 27-8 34-20 4 2 9 3 13 3 20 0 35-15 35-35s-15-35-35-35c-3 0-5 0-8 1 0-5-1-9-3-13 4-6 6-12 6-20 0-20-15-35-35-35-11 0-20 5-26 13-9-7-20-12-33-12-28 0-50 23-50 50 0 5 1 9 2 14-10 7-16 19-16 32 0 22 17 40 39 40 11 0 22-5 29-13 7 4 15 6 23 6 27 0 48-22 48-49 0-13-5-24-13-32 7-7 11-16 11-27 0-20-15-35-35-35z" transform="translate(20, 80)"/>
  
  <!-- 绿草地波浪线 -->
  <path fill="#6a994e" fill-opacity="0.1" d="M0 260 Q 150 230, 300 260 T 600 260 V 300 H 0 Z" />
</svg> 